{
.appVersion = "3221";
.formatVersion = 3;
DisplayStrings = (
"hambugerfonstiv
HAMBUGERFONSTIV",
"ABRAHAM BRUNETTI DETROIT EVANSON FAIRBURN GENOVESE HANRAETS ISBISTER MERRITT NUSSBAUM OSBOURNE ROBINSON STROMAN TRAVIESO VARNHAM ANTONINO BEAUMONT ETHANSON FONTANA GERMANO HERRIOT INGESSON MONTANA NEUMANN OVERTON RUGGERI STEENSEN THOMSON VONNEGUT ABRAHAM BRUNETTI EVANSON FAIRBURN GENOVESE HANRAETS ISBISTER MERRITT NUSSBAUM OSBOURNE ROBINSON STROMAN TRAVIESO VARNHAM ANTONINO BEAUMONT ETHANSON FONTANA GERMANO HERRIOT INGESSON MONTANA NEUMANN OVERTON
RUGGERI STEENSEN THOMSON VONNEGUT",
"Abraham Brunetti Detroit Evanson Fairburn Genovese Hanraets Isbister Merritt Nussbaum Osbourne Robinson Stroman Travieso Varnham Antonino Beaumont Ethanson Fontana Germano Herriot Ingesson Montana Neumann Overton Ruggeri Steensen Thomson Vonnegut Abraham Brunetti Evanson Fairburn Genovese Hanraets Isbister Merritt Nussbaum Osbourne Robinson Stroman Travieso Varnham Antonino Beaumont Ethanson Fontana Germano Herriot Ingesson Montana Neumann Overton Ruggeri Steensen Thomson Vonnegut",
"Abraham Brunetti Detroit Evanson Fairburn Genovese Hanraets Isbister Merritt Nussbaum Osbourne Robinson Stroman Travieso Varnham Antonino Beaumont Ethanson Fontana Germano Herriot Ingesson Montana Neumann Overton Ruggeri Steensen Thomson Vonnegut Abraham Brunetti Evanson Fairburn Genovese Hanraets Isbister Merritt Nussbaum Osbourne Robinson Stroman Travieso Varnham Antonino
VERV October    AM
Beaumont Ethanson Fontana Germano Herriot Ingesson Montana Neumann Overton Ruggeri Steensen Thomson Vonnegut"
);
date = "2023-08-18 19:19:28 +0000";
familyName = VERV023;
fontMaster = (
{
id = m01;
metricValues = (
{
over = 16;
pos = 800;
},
{
over = 16;
pos = 700;
},
{
over = 16;
pos = 500;
},
{
over = -16;
},
{
over = -16;
pos = -200;
}
);
name = Regular;
userData = {
GSCornerRadius = 98;
};
visible = 1;
}
);
glyphs = (
{
glyphname = A;
lastChange = "2023-10-12 08:00:59 +0000";
layers = (
{
layerId = m01;
shapes = (
{
closed = 1;
nodes = (
(39,-28,o),
(118,19,o),
(122,60,cs),
(135,187,o),
(156,333,o),
(163,371,cs),
(188,505,o),
(209,558,o),
(221,561,cs),
(269,571,o),
(273,501,o),
(263,408,cs),
(252,310,o),
(243,211,o),
(233,112,cs),
(226,48,o),
(233,10,o),
(268,1,cs),
(289,-5,o),
(416,123,o),
(392,129,cs),
(373,134,o),
(372,154,o),
(377,206,cs),
(387,304,o),
(397,403,o),
(407,502,cs),
(418,601,o),
(368,732,o),
(273,713,cs),
(137,686,o),
(99,464,o),
(85,385,cs),
(78,349,o),
(57,159,o),
(44,18,cs)
);
},
{
closed = 1;
nodes = (
(44,437,o),
(-17,267,o),
(4,267,cs),
(142,268,o),
(279,268,o),
(417,268,cs),
(436,268,o),
(498,438,o),
(477,438,cs),
(339,437,o),
(202,437,o),
(64,437,cs)
);
}
);
width = 516;
}
);
unicode = 65;
},
{
glyphname = B;
lastChange = "2023-10-12 08:19:32 +0000";
layers = (
{
layerId = m01;
shapes = (
{
closed = 1;
nodes = (
(39,212,o),
(51,102,o),
(71,181,cs),
(112,338,o),
(481,361,o),
(388,135,cs),
(363,73,o),
(474,194,o),
(496,247,cs),
(605,513,o),
(124,542,o),
(57,281,cs)
);
},
{
closed = 1;
nodes = (
(166,383,o),
(149,287,o),
(230,342,cs),
(744,695,o),
(210,909,o),
(62,477,cs),
(25,369,o),
(100,339,o),
(138,451,cs),
(186,591,o),
(472,593,o),
(240,434,cs)
);
},
{
closed = 1;
nodes = (
(152,496,o),
(76,522,o),
(62,470,cs),
(36,380,o),
(25,219,o),
(26,145,cs),
(27,91,o),
(113,99,o),
(112,153,cs),
(111,213,o),
(116,370,o),
(138,448,cs)
);
},
{
closed = 1;
nodes = (
(529,358,o),
(489,329,o),
(461,236,cs),
(422,106,o),
(54,122,o),
(141,299,cs),
(174,368,o),
(71,265,o),
(39,199,cs),
(-58,0,o),
(365,-193,o),
(499,258,cs)
);
}
);
width = 547;
}
);
unicode = 66;
},
{
glyphname = D;
lastChange = "2023-10-12 07:59:37 +0000";
layers = (
{
layerId = m01;
shapes = (
{
closed = 1;
nodes = (
(110,726,o),
(46,558,o),
(64,545,cs),
(333,338,o),
(401,192,o),
(306,14,cs),
(277,-40,o),
(399,61,o),
(428,116,cs),
(545,336,o),
(400,502,o),
(126,713,cs)
);
},
{
closed = 1;
nodes = (
(164,606,o),
(85,614,o),
(80,561,cs),
(67,408,o),
(53,255,o),
(40,102,cs),
(36,51,o),
(115,44,o),
(120,96,cs),
(133,249,o),
(147,402,o),
(160,555,cs)
);
},
{
closed = 1;
nodes = (
(59,220,o),
(-4,52,o),
(13,39,cs),
(80,-17,o),
(221,-27,o),
(311,0,cs),
(332,6,o),
(390,177,o),
(365,170,cs),
(281,145,o),
(140,155,o),
(75,207,cs)
);
}
);
width = 499;
}
);
metricRight = "=O";
unicode = 68;
},
{
glyphname = E;
lastChange = "2023-10-12 08:21:29 +0000";
layers = (
{
layerId = m01;
shapes = (
{
closed = 1;
nodes = (
(320,455,o),
(448,583,o),
(441,602,cs),
(404,705,o),
(327,738,o),
(275,712,cs),
(39,592,o),
(57,134,o),
(42,39,cs),
(34,-10,o),
(52,3,o),
(54,4,cs),
(99,19,o),
(131,27,o),
(181,18,cs),
(239,8,o),
(327,-14,o),
(377,27,cs),
(404,49,o),
(459,218,o),
(429,193,cs),
(391,162,o),
(299,178,o),
(241,188,cs),
(197,195,o),
(161,197,o),
(116,180,c),
(120,169,o),
(124,157,o),
(128,145,c),
(165,380,o),
(182,530,o),
(229,554,cs),
(243,561,o),
(276,579,o),
(313,476,cs)
);
},
{
closed = 1;
nodes = (
(73,438,o),
(13,268,o),
(34,268,cs),
(142,269,o),
(250,269,o),
(357,269,cs),
(377,269,o),
(439,439,o),
(417,439,cs),
(309,438,o),
(201,438,o),
(94,438,cs)
);
}
);
width = 471;
}
);
metricRight = "=|";
unicode = 69;
},
{
glyphname = F;
lastChange = "2023-10-12 07:59:27 +0000";
layers = (
{
layerId = m01;
shapes = (
{
closed = 1;
nodes = (
(458,583,o),
(503,743,o),
(467,695,cs),
(441,662,o),
(374,650,o),
(330,650,cs),
(275,650,o),
(213,672,o),
(180,701,cs),
(150,729,o),
(101,569,o),
(101,564,cs),
(86,375,o),
(71,196,o),
(57,13,cs),
(53,-32,o),
(132,16,o),
(135,57,cs),
(152,264,o),
(169,475,o),
(185,676,c),
(159,630,o),
(132,584,o),
(106,539,c),
(145,502,o),
(213,480,o),
(270,480,cs),
(322,480,o),
(379,480,o),
(425,541,cs)
);
},
{
closed = 1;
nodes = (
(364,226,o),
(414,399,o),
(393,400,cs),
(295,400,o),
(196,401,o),
(98,402,cs),
(79,402,o),
(29,229,o),
(50,228,cs),
(148,228,o),
(247,227,o),
(345,226,cs)
);
}
);
width = 489;
}
);
unicode = 70;
},
{
glyphname = G;
lastChange = "2023-10-12 07:59:27 +0000";
layers = (
{
layerId = m01;
shapes = (
{
closed = 1;
nodes = (
(441,438,o),
(525,596,o),
(520,625,cs),
(511,673,o),
(320,849,o),
(134,501,cs),
(99,435,o),
(13,287,o),
(41,143,cs),
(97,-146,o),
(379,56,o),
(458,271,cs),
(484,342,o),
(426,333,o),
(400,263,cs),
(381,210,o),
(212,40,o),
(161,298,cs),
(148,365,o),
(170,441,o),
(201,500,cs),
(256,601,o),
(407,611,o),
(434,471,cs)
);
},
{
closed = 1;
nodes = (
(314,350,o),
(226,218,o),
(287,266,cs),
(308,283,o),
(384,288,o),
(379,199,cs),
(376,134,o),
(367,71,o),
(360,5,cs),
(354,-62,o),
(373,-85,o),
(388,-91,cs),
(407,-99,o),
(534,28,o),
(514,37,cs),
(503,42,o),
(495,49,o),
(502,113,cs),
(508,177,o),
(517,243,o),
(521,307,cs),
(524,386,o),
(438,449,o),
(363,390,cs)
);
}
);
width = 559;
}
);
unicode = 71;
},
{
glyphname = H;
lastChange = "2023-10-12 07:59:27 +0000";
layers = (
{
layerId = m01;
shapes = (
{
closed = 1;
nodes = (
(89,438,o),
(28,268,o),
(49,268,cs),
(193,269,o),
(338,269,o),
(482,269,cs),
(501,269,o),
(563,439,o),
(542,439,cs),
(398,438,o),
(253,438,o),
(109,438,cs)
);
},
{
closed = 1;
nodes = (
(210,726,o),
(80,603,o),
(90,584,cs),
(107,553,o),
(108,548,o),
(103,490,cs),
(93,362,o),
(84,234,o),
(74,106,cs),
(69,39,o),
(83,20,o),
(112,0,cs),
(128,-11,o),
(255,116,o),
(238,128,cs),
(215,144,o),
(211,153,o),
(216,214,cs),
(225,342,o),
(234,470,o),
(245,598,cs),
(250,662,o),
(239,673,o),
(220,708,cs)
);
},
{
closed = 1;
nodes = (
(478,726,o),
(348,603,o),
(358,584,cs),
(375,553,o),
(376,548,o),
(371,490,cs),
(361,362,o),
(352,234,o),
(342,106,cs),
(337,39,o),
(351,20,o),
(380,0,cs),
(396,-11,o),
(523,116,o),
(506,128,cs),
(483,144,o),
(479,153,o),
(484,214,cs),
(493,342,o),
(502,470,o),
(513,598,cs),
(518,662,o),
(507,673,o),
(488,708,cs)
);
}
);
width = 591;
}
);
metricRight = "=|";
unicode = 72;
},
{
glyphname = I;
lastChange = "2023-10-12 08:20:25 +0000";
layers = (
{
layerId = m01;
shapes = (
{
closed = 1;
nodes = (
(172,726,o),
(42,603,o),
(52,584,cs),
(69,553,o),
(70,548,o),
(65,490,cs),
(55,362,o),
(46,234,o),
(36,106,cs),
(31,39,o),
(45,20,o),
(74,0,cs),
(90,-11,o),
(217,116,o),
(200,128,cs),
(177,144,o),
(173,153,o),
(178,214,cs),
(187,342,o),
(196,470,o),
(207,598,cs),
(212,662,o),
(201,673,o),
(182,708,cs)
);
}
);
width = 243;
}
);
metricRight = "=|";
unicode = 73;
},
{
glyphname = L;
lastChange = "2023-10-12 07:59:27 +0000";
layers = (
{
layerId = m01;
shapes = (
{
closed = 1;
nodes = (
(135,174,o),
(65,16,o),
(107,57,cs),
(217,164,o),
(218,-58,o),
(355,12,cs),
(379,24,o),
(438,194,o),
(411,180,cs),
(280,114,o),
(305,338,o),
(169,207,cs)
);
},
{
closed = 1;
nodes = (
(169,726,o),
(39,603,o),
(49,584,cs),
(66,553,o),
(67,548,o),
(62,490,cs),
(52,363,o),
(43,235,o),
(33,108,cs),
(28,40,o),
(31,18,o),
(36,-2,cs),
(43,-27,o),
(157,112,o),
(152,134,cs),
(151,138,o),
(170,156,o),
(175,216,cs),
(184,343,o),
(194,471,o),
(204,598,cs),
(209,662,o),
(198,673,o),
(179,708,cs)
);
}
);
width = 467;
}
);
unicode = 76;
},
{
glyphname = M;
lastChange = "2023-10-12 08:00:41 +0000";
layers = (
{
layerId = m01;
shapes = (
{
closed = 1;
nodes = (
(165,722,o),
(43,603,o),
(56,586,cs),
(138,474,o),
(213,51,o),
(273,1,cs),
(288,-12,o),
(408,108,o),
(393,121,cs),
(337,169,o),
(260,592,o),
(176,706,cs)
);
},
{
closed = 1;
nodes = (
(-10,-27,o),
(68,10,o),
(79,54,cs),
(134,294,o),
(123,646,o),
(122,648,cs),
(121,672,o),
(48,604,o),
(50,584,cs),
(50,573,o),
(54,248,o),
(1,22,cs)
);
},
{
closed = 1;
nodes = (
(259,106,o),
(337,139,o),
(350,184,cs),
(414,404,o),
(451,605,o),
(451,626,cs),
(451,666,o),
(367,620,o),
(367,582,cs),
(367,573,o),
(336,370,o),
(274,156,cs)
);
},
{
closed = 1;
nodes = (
(499,746,o),
(370,620,o),
(374,596,cs),
(391,465,o),
(421,5,o),
(510,2,cs),
(534,1,o),
(653,123,o),
(626,124,cs),
(579,126,o),
(521,588,o),
(502,720,cs)
);
}
);
width = 650;
}
);
unicode = 77;
},
{
glyphname = N;
lastChange = "2023-10-12 08:04:11 +0000";
layers = (
{
layerId = m01;
shapes = (
{
closed = 1;
nodes = (
(163,726,o),
(42,607,o),
(52,589,cs),
(143,426,o),
(243,117,o),
(346,21,cs),
(360,8,o),
(481,128,o),
(466,141,cs),
(365,235,o),
(265,544,o),
(174,707,cs)
);
},
{
closed = 1;
nodes = (
(17,-26,o),
(96,14,o),
(104,58,cs),
(115,119,o),
(147,597,o),
(147,598,cs),
(151,642,o),
(71,597,o),
(69,554,cs),
(67,538,o),
(37,83,o),
(26,22,cs)
);
},
{
closed = 1;
nodes = (
(464,726,o),
(340,609,o),
(350,591,cs),
(367,559,o),
(369,554,o),
(364,496,cs),
(330,42,o),
(316,28,o),
(373,1,cs),
(391,-7,o),
(511,113,o),
(491,123,cs),
(454,140,o),
(464,146,o),
(498,598,cs),
(503,662,o),
(493,673,o),
(474,707,cs)
);
}
);
width = 534;
}
);
unicode = 78;
},
{
glyphname = O;
lastChange = "2023-10-12 07:59:27 +0000";
layers = (
{
layerId = m01;
shapes = (
{
closed = 1;
nodes = (
(661,433,o),
(343,972,o),
(108,583,cs),
(-86,263,o),
(120,-181,o),
(324,50,cs)
);
},
{
closed = 1;
nodes = (
(231,43,o),
(83,426,o),
(166,563,cs),
(243,689,o),
(427,265,o),
(318,142,cs)
);
}
);
width = 501;
}
);
unicode = 79;
},
{
glyphname = R;
lastChange = "2023-10-12 08:20:35 +0000";
layers = (
{
layerId = m01;
shapes = (
{
closed = 1;
nodes = (
(89,358,o),
(24,211,o),
(52,225,cs),
(241,316,o),
(395,230,o),
(323,21,cs),
(301,-44,o),
(431,54,o),
(451,113,cs),
(543,384,o),
(293,456,o),
(112,369,cs)
);
},
{
closed = 1;
nodes = (
(140,303,o),
(148,224,o),
(231,294,cs),
(679,672,o),
(224,864,o),
(90,544,cs),
(47,440,o),
(106,383,o),
(152,492,cs),
(190,583,o),
(423,541,o),
(217,368,cs)
);
},
{
closed = 1;
nodes = (
(167,538,o),
(96,559,o),
(80,509,cs),
(47,406,o),
(24,81,o),
(20,15,cs),
(16,-30,o),
(96,18,o),
(98,59,cs),
(102,105,o),
(131,426,o),
(152,491,cs)
);
}
);
width = 506;
}
);
unicode = 82;
},
{
glyphname = S;
lastChange = "2023-10-12 07:59:27 +0000";
layers = (
{
layerId = m01;
shapes = (
{
closed = 1;
nodes = (
(60,270,o),
(-6,106,o),
(7,80,cs),
(34,26,o),
(178,-108,o),
(315,86,cs),
(488,333,o),
(390,352,o),
(285,420,cs),
(126,524,o),
(157,552,o),
(162,559,cs),
(179,583,o),
(313,561,o),
(365,447,cs),
(376,422,o),
(439,592,o),
(429,613,cs),
(409,659,o),
(269,809,o),
(140,625,cs),
(-15,404,o),
(56,358,o),
(161,290,cs),
(321,185,o),
(308,174,o),
(293,152,cs),
(272,121,o),
(122,147,o),
(73,246,cs)
);
}
);
width = 445;
}
);
unicode = 83;
},
{
glyphname = T;
lastChange = "2023-10-12 07:59:27 +0000";
layers = (
{
layerId = m01;
shapes = (
{
closed = 1;
nodes = (
(445,537,o),
(513,704,o),
(471,697,cs),
(372,680,o),
(159,713,o),
(96,680,cs),
(74,668,o),
(28,496,o),
(52,508,cs),
(105,535,o),
(310,514,o),
(411,531,cs)
);
},
{
closed = 1;
nodes = (
(300,570,o),
(166,443,o),
(175,423,cs),
(188,393,o),
(127,78,o),
(160,-2,cs),
(169,-22,o),
(300,109,o),
(292,128,cs),
(261,202,o),
(324,513,o),
(309,549,cs)
);
}
);
width = 474;
}
);
unicode = 84;
},
{
glyphname = U;
lastChange = "2023-10-12 08:19:48 +0000";
layers = (
{
layerId = m01;
shapes = (
{
closed = 1;
nodes = (
(159,720,o),
(31,593,o),
(47,571,cs),
(55,559,o),
(64,541,o),
(60,495,cs),
(50,397,o),
(40,298,o),
(31,199,cs),
(19,79,o),
(104,-50,o),
(223,-6,cs),
(304,24,o),
(398,154,o),
(407,248,cs),
(411,288,o),
(434,680,o),
(434,687,cs),
(437,731,o),
(358,686,o),
(356,643,cs),
(354,624,o),
(332,302,o),
(327,254,cs),
(316,139,o),
(261,118,o),
(261,118,cs),
(190,91,o),
(164,177,o),
(175,293,cs),
(185,391,o),
(194,490,o),
(204,589,cs),
(211,657,o),
(187,681,o),
(175,697,cs)
);
}
);
width = 454;
}
);
unicode = 85;
},
{
glyphname = V;
kernLeft = v;
kernRight = v;
lastChange = "2023-10-12 08:21:10 +0000";
layers = (
{
layerId = m01;
shapes = (
{
closed = 1;
nodes = (
(478,739,o),
(401,706,o),
(389,659,cs),
(344,486,o),
(226,134,o),
(213,82,cs),
(202,33,o),
(280,70,o),
(291,114,cs),
(300,154,o),
(420,514,o),
(465,691,cs)
);
},
{
closed = 1;
nodes = (
(185,-34,o),
(312,94,o),
(284,116,cs),
(267,130,o),
(251,143,o),
(237,230,cs),
(225,304,o),
(221,429,o),
(196,600,cs),
(186,668,o),
(170,708,o),
(142,715,cs),
(123,720,o),
(-6,592,o),
(18,587,cs),
(30,584,o),
(51,548,o),
(60,482,cs),
(85,317,o),
(81,194,o),
(93,124,cs),
(108,29,o),
(133,8,o),
(158,-12,cs)
);
}
);
width = 431;
}
);
unicode = 86;
},
{
glyphname = a;
lastChange = "2023-10-12 07:59:27 +0000";
layers = (
{
layerId = m01;
shapes = (
{
closed = 1;
nodes = (
(74,28,o),
(153,68,o),
(161,112,cs),
(194,291,o),
(235,558,o),
(273,666,cs),
(286,702,o),
(194,619,o),
(183,586,cs),
(147,484,o),
(112,237,o),
(83,76,cs)
);
},
{
closed = 1;
nodes = (
(39,143,o),
(-17,-27,o),
(14,2,cs),
(48,33,o),
(129,39,o),
(159,0,cs),
(174,-19,o),
(236,150,o),
(223,168,cs),
(191,209,o),
(108,207,o),
(64,166,cs)
);
},
{
closed = 1;
nodes = (
(87,436,o),
(30,266,o),
(40,266,cs),
(177,267,o),
(315,267,o),
(453,267,cs),
(465,267,o),
(525,437,o),
(513,437,cs),
(376,436,o),
(238,436,o),
(100,436,cs)
);
},
{
closed = 1;
nodes = (
(256,689,o),
(163,583,o),
(246,612,cs),
(274,622,o),
(283,246,o),
(313,60,cs),
(322,6,o),
(360,-9,o),
(398,3,cs),
(433,14,o),
(553,143,o),
(514,131,cs),
(480,121,o),
(450,133,o),
(442,184,cs),
(418,332,o),
(443,755,o),
(328,714,cs)
);
}
);
width = 551;
}
);
unicode = 97;
},
{
glyphname = b;
lastChange = "2023-10-12 07:59:27 +0000";
layers = (
{
layerId = m01;
shapes = (
{
closed = 1;
nodes = (
(37,218,o),
(41,85,o),
(63,152,cs),
(121,329,o),
(483,356,o),
(381,140,cs),
(348,71,o),
(454,180,o),
(484,242,cs),
(615,518,o),
(134,513,o),
(54,272,cs)
);
},
{
closed = 1;
nodes = (
(162,369,o),
(163,286,o),
(242,348,cs),
(734,730,o),
(263,826,o),
(98,580,cs),
(54,514,o),
(76,389,o),
(128,466,cs),
(227,614,o),
(487,622,o),
(238,428,cs)
);
},
{
closed = 1;
nodes = (
(157,566,o),
(78,571,o),
(76,517,cs),
(75,493,o),
(32,217,o),
(24,150,cs),
(19,96,o),
(104,94,o),
(110,148,cs),
(116,209,o),
(154,473,o),
(156,515,cs)
);
},
{
closed = 1;
nodes = (
(475,186,o),
(518,323,o),
(479,276,cs),
(259,8,o),
(82,221,o),
(97,277,cs),
(120,363,o),
(47,252,o),
(24,165,cs),
(-12,33,o),
(196,-152,o),
(441,144,cs)
);
}
);
width = 554;
}
);
unicode = 98;
},
{
glyphname = d;
lastChange = "2023-10-12 07:59:27 +0000";
layers = (
{
layerId = m01;
shapes = (
{
closed = 1;
nodes = (
(117,735,o),
(54,567,o),
(71,554,cs),
(358,328,o),
(411,185,o),
(338,50,c),
(374,83,o),
(410,115,o),
(446,148,c),
(223,174,o),
(130,203,o),
(85,167,cs),
(61,148,o),
(4,-22,o),
(33,1,cs),
(46,11,o),
(127,22,o),
(336,-2,cs),
(370,-6,o),
(439,86,o),
(444,96,cs),
(583,353,o),
(404,510,o),
(133,722,cs)
);
},
{
closed = 1;
nodes = (
(59,58,o),
(138,51,o),
(143,103,cs),
(160,301,o),
(201,621,o),
(183,647,cs),
(155,689,o),
(87,647,o),
(117,603,cs),
(117,602,o),
(84,349,o),
(63,109,cs)
);
}
);
width = 527;
}
);
unicode = 100;
},
{
glyphname = e;
lastChange = "2023-10-12 07:59:27 +0000";
layers = (
{
layerId = m01;
shapes = (
{
closed = 1;
nodes = (
(187,650,o),
(108,663,o),
(101,610,cs),
(78,415,o),
(59,220,o),
(36,32,cs),
(30,-16,o),
(52,0,o),
(60,6,cs),
(87,30,o),
(126,35,o),
(175,19,cs),
(243,-2,o),
(334,-18,o),
(384,25,cs),
(407,44,o),
(453,218,o),
(426,195,cs),
(390,166,o),
(299,169,o),
(237,189,cs),
(186,205,o),
(151,206,o),
(96,160,c),
(104,151,o),
(112,143,o),
(120,134,c),
(139,294,o),
(162,447,o),
(181,600,cs)
);
},
{
closed = 1;
nodes = (
(73,438,o),
(13,268,o),
(34,268,cs),
(142,269,o),
(250,269,o),
(357,269,cs),
(377,269,o),
(439,439,o),
(417,439,cs),
(309,438,o),
(201,438,o),
(94,438,cs)
);
},
{
closed = 1;
nodes = (
(445,549,o),
(492,723,o),
(465,703,cs),
(416,667,o),
(175,739,o),
(103,681,cs),
(80,662,o),
(36,491,o),
(61,511,cs),
(125,563,o),
(366,491,o),
(423,533,cs)
);
}
);
width = 471;
}
);
unicode = 101;
},
{
glyphname = f;
lastChange = "2023-10-12 07:59:27 +0000";
layers = (
{
layerId = m01;
shapes = (
{
closed = 1;
nodes = (
(197,748,o),
(112,627,o),
(107,551,cs),
(94,365,o),
(88,189,o),
(76,10,cs),
(74,-26,o),
(143,19,o),
(146,54,cs),
(159,259,o),
(178,467,o),
(191,665,cs)
);
},
{
closed = 1;
nodes = (
(450,558,o),
(493,730,o),
(464,702,cs),
(429,669,o),
(175,712,o),
(124,687,cs),
(101,675,o),
(47,505,o),
(72,517,cs),
(119,542,o),
(377,489,o),
(424,534,cs)
);
},
{
closed = 1;
nodes = (
(377,285,o),
(425,459,o),
(399,444,cs),
(363,424,o),
(140,457,o),
(96,431,cs),
(73,418,o),
(28,245,o),
(52,259,cs),
(90,281,o),
(313,248,o),
(355,272,cs)
);
}
);
width = 487;
}
);
unicode = 102;
},
{
glyphname = g;
lastChange = "2023-10-12 07:59:27 +0000";
layers = (
{
layerId = m01;
shapes = (
{
closed = 1;
nodes = (
(433,655,o),
(446,706,o),
(356,630,cs),
(-41,298,o),
(-31,87,o),
(84,9,cs),
(157,-41,o),
(281,-25,o),
(422,239,cs),
(474,337,o),
(413,291,o),
(362,197,cs),
(360,193,o),
(291,82,o),
(210,137,cs),
(77,228,o),
(177,440,o),
(348,584,cs)
);
},
{
closed = 1;
nodes = (
(259,351,o),
(171,219,o),
(232,267,cs),
(253,284,o),
(329,289,o),
(324,200,cs),
(321,135,o),
(312,72,o),
(305,6,cs),
(299,-61,o),
(314,-80,o),
(343,-100,cs),
(359,-111,o),
(486,16,o),
(469,28,cs),
(446,44,o),
(441,53,o),
(447,114,cs),
(453,178,o),
(462,244,o),
(466,308,cs),
(469,387,o),
(383,450,o),
(308,391,cs)
);
},
{
closed = 1;
nodes = (
(409,562,o),
(462,730,o),
(430,696,cs),
(406,672,o),
(286,663,o),
(246,701,cs),
(230,716,o),
(166,548,o),
(182,533,cs),
(224,494,o),
(346,497,o),
(382,534,cs)
);
}
);
width = 526;
}
);
unicode = 103;
},
{
glyphname = h;
lastChange = "2023-10-12 07:59:27 +0000";
layers = (
{
layerId = m01;
shapes = (
{
closed = 1;
nodes = (
(89,438,o),
(28,268,o),
(49,268,cs),
(193,269,o),
(338,269,o),
(482,269,cs),
(501,269,o),
(563,439,o),
(542,439,cs),
(398,438,o),
(253,438,o),
(109,438,cs)
);
},
{
closed = 1;
nodes = (
(173,702,o),
(43,571,o),
(82,580,cs),
(91,583,o),
(102,564,o),
(97,488,cs),
(87,361,o),
(77,234,o),
(68,106,cs),
(62,39,o),
(86,-6,o),
(109,-2,cs),
(139,3,o),
(266,136,o),
(231,130,cs),
(196,124,o),
(208,155,o),
(212,218,cs),
(222,345,o),
(232,472,o),
(241,600,cs),
(246,660,o),
(235,717,o),
(204,710,cs)
);
},
{
closed = 1;
nodes = (
(442,702,o),
(312,571,o),
(351,580,cs),
(360,583,o),
(371,564,o),
(366,488,cs),
(356,361,o),
(346,234,o),
(337,106,cs),
(331,39,o),
(355,-6,o),
(378,-2,cs),
(408,3,o),
(535,136,o),
(500,130,cs),
(465,124,o),
(477,155,o),
(481,218,cs),
(491,345,o),
(501,472,o),
(510,600,cs),
(515,660,o),
(504,717,o),
(473,710,cs)
);
}
);
width = 591;
}
);
unicode = 104;
},
{
glyphname = i;
kernLeft = i;
kernRight = i;
lastChange = "2023-10-12 07:59:27 +0000";
layers = (
{
layerId = m01;
shapes = (
{
closed = 1;
nodes = (
(154,693,o),
(24,562,o),
(63,571,cs),
(72,574,o),
(83,558,o),
(78,488,cs),
(68,361,o),
(58,234,o),
(49,106,cs),
(43,39,o),
(67,-6,o),
(90,-2,cs),
(120,3,o),
(247,136,o),
(212,130,cs),
(177,124,o),
(189,155,o),
(193,218,cs),
(203,345,o),
(213,472,o),
(222,600,cs),
(227,654,o),
(216,708,o),
(185,701,cs)
);
}
);
width = 271;
}
);
unicode = 105;
},
{
glyphname = l;
lastChange = "2023-10-12 07:59:27 +0000";
layers = (
{
layerId = m01;
shapes = (
{
closed = 1;
nodes = (
(139,693,o),
(9,562,o),
(48,571,cs),
(57,574,o),
(68,558,o),
(63,488,cs),
(53,365,o),
(43,242,o),
(34,118,cs),
(28,53,o),
(21,6,o),
(72,0,cs),
(94,-2,o),
(223,149,o),
(200,152,cs),
(159,157,o),
(173,165,o),
(178,230,cs),
(188,353,o),
(198,476,o),
(207,600,cs),
(212,654,o),
(201,708,o),
(170,701,cs)
);
},
{
closed = 1;
nodes = (
(131,103,o),
(98,1,o),
(155,77,cs),
(210,151,o),
(293,-49,o),
(358,15,cs),
(386,42,o),
(440,210,o),
(408,179,cs),
(346,119,o),
(312,345,o),
(179,167,cs)
);
}
);
width = 476;
}
);
unicode = 108;
},
{
glyphname = m;
lastChange = "2023-10-12 08:00:27 +0000";
layers = (
{
layerId = m01;
shapes = (
{
closed = 1;
nodes = (
(235,722,o),
(113,603,o),
(126,586,cs),
(208,474,o),
(283,51,o),
(343,1,cs),
(358,-12,o),
(478,108,o),
(463,121,cs),
(407,169,o),
(330,592,o),
(246,706,cs)
);
},
{
closed = 1;
nodes = (
(69,50,o),
(147,87,o),
(158,131,cs),
(213,371,o),
(193,646,o),
(192,648,cs),
(191,672,o),
(118,604,o),
(120,584,cs),
(120,573,o),
(133,325,o),
(80,99,cs)
);
},
{
closed = 1;
nodes = (
(329,106,o),
(407,139,o),
(420,184,cs),
(484,404,o),
(521,605,o),
(521,626,cs),
(521,666,o),
(437,620,o),
(437,582,cs),
(437,573,o),
(406,370,o),
(344,156,cs)
);
},
{
closed = 1;
nodes = (
(569,746,o),
(440,620,o),
(444,596,cs),
(461,465,o),
(491,5,o),
(580,2,cs),
(604,1,o),
(723,123,o),
(696,124,cs),
(649,126,o),
(591,588,o),
(572,720,cs)
);
},
{
closed = 1;
nodes = (
(34,143,o),
(-22,-27,o),
(9,2,cs),
(42,33,o),
(129,39,o),
(158,0,cs),
(173,-19,o),
(235,150,o),
(222,168,cs),
(191,209,o),
(102,207,o),
(59,166,cs)
);
}
);
width = 720;
}
);
unicode = 109;
},
{
glyphname = n;
lastChange = "2023-10-12 07:59:27 +0000";
layers = (
{
layerId = m01;
shapes = (
{
closed = 1;
nodes = (
(195,726,o),
(74,607,o),
(84,589,cs),
(175,426,o),
(275,129,o),
(378,6,cs),
(390,-9,o),
(511,111,o),
(498,126,cs),
(397,247,o),
(297,544,o),
(206,707,cs)
);
},
{
closed = 1;
nodes = (
(41,85,o),
(116,56,o),
(134,105,cs),
(158,167,o),
(180,570,o),
(180,573,cs),
(183,624,o),
(103,632,o),
(100,579,cs),
(99,564,o),
(76,175,o),
(60,133,cs)
);
},
{
closed = 1;
nodes = (
(9,145,o),
(-47,-25,o),
(-16,4,cs),
(18,35,o),
(99,41,o),
(129,2,cs),
(144,-17,o),
(206,152,o),
(193,170,cs),
(161,211,o),
(78,209,o),
(34,168,cs)
);
},
{
closed = 1;
nodes = (
(550,570,o),
(604,738,o),
(573,709,cs),
(539,678,o),
(458,672,o),
(428,711,cs),
(414,729,o),
(349,562,o),
(364,543,cs),
(396,502,o),
(479,504,o),
(523,545,cs)
);
},
{
closed = 1;
nodes = (
(366,85,o),
(441,56,o),
(459,105,cs),
(483,167,o),
(505,570,o),
(505,573,cs),
(508,624,o),
(428,632,o),
(425,579,cs),
(424,564,o),
(401,175,o),
(385,133,cs)
);
}
);
width = 547;
}
);
unicode = 110;
},
{
glyphname = o;
lastChange = "2023-10-12 07:59:27 +0000";
layers = (
{
layerId = m01;
shapes = (
{
closed = 1;
nodes = (
(-6,277,o),
(-38,-40,o),
(201,-9,cs),
(252,-2,o),
(294,60,o),
(303,69,cs),
(625,385,o),
(281,630,o),
(215,713,cs),
(212,716,o),
(207,721,o),
(169,642,cs)
);
},
{
closed = 1;
nodes = (
(168,598,o),
(153,574,o),
(137,551,c),
(206,466,o),
(435,233,o),
(231,33,c),
(265,59,o),
(299,85,o),
(333,111,c),
(62,75,o),
(142,536,o),
(183,622,c)
);
}
);
width = 469;
}
);
unicode = 111;
},
{
glyphname = r;
lastChange = "2023-10-12 07:59:27 +0000";
layers = (
{
layerId = m01;
shapes = (
{
closed = 1;
nodes = (
(153,286,o),
(153,202,o),
(237,268,cs),
(689,627,o),
(224,882,o),
(101,562,cs),
(40,404,o),
(36,262,o),
(15,16,cs),
(11,-30,o),
(90,17,o),
(93,58,cs),
(116,323,o),
(146,512,o),
(147,514,cs),
(186,614,o),
(427,503,o),
(231,348,cs)
);
},
{
closed = 1;
nodes = (
(121,533,o),
(51,374,o),
(58,337,cs),
(96,148,o),
(343,-40,o),
(405,8,cs),
(430,27,o),
(487,196,o),
(459,174,cs),
(395,126,o),
(164,318,o),
(128,497,cs)
);
}
);
width = 515;
}
);
unicode = 114;
},
{
glyphname = s;
lastChange = "2023-10-12 07:59:37 +0000";
layers = (
{
layerId = m01;
shapes = (
{
closed = 1;
nodes = (
(266,418,o),
(390,525,o),
(416,574,cs),
(454,648,o),
(366,794,o),
(204,660,cs),
(135,602,o),
(95,526,o),
(170,588,cs),
(208,620,o),
(330,544,o),
(292,470,cs)
);
},
{
closed = 1;
nodes = (
(205,663,o),
(79,551,o),
(61,509,cs),
(17,409,o),
(94,359,o),
(163,294,cs),
(228,234,o),
(303,188,o),
(261,86,cs),
(246,49,o),
(371,163,o),
(387,202,cs),
(439,326,o),
(350,356,o),
(285,416,cs),
(216,479,o),
(151,539,o),
(187,623,cs)
);
},
{
closed = 1;
nodes = (
(156,274,o),
(28,159,o),
(11,117,cs),
(-23,34,o),
(98,-37,o),
(206,18,cs),
(251,41,o),
(348,155,o),
(294,128,cs),
(218,89,o),
(111,162,o),
(137,227,cs)
);
}
);
width = 455;
}
);
metricRight = o;
unicode = 115;
},
{
glyphname = t;
lastChange = "2023-10-12 08:05:41 +0000";
layers = (
{
layerId = m01;
shapes = (
{
closed = 1;
nodes = (
(437,551,o),
(497,719,o),
(450,696,cs),
(398,671,o),
(155,725,o),
(95,672,cs),
(71,651,o),
(28,480,o),
(53,502,cs),
(103,545,o),
(330,499,o),
(398,532,cs)
);
},
{
closed = 1;
nodes = (
(357,628,o),
(306,646,o),
(273,602,cs),
(151,446,o),
(88,276,o),
(79,179,cs),
(70,64,o),
(136,-39,o),
(247,14,cs),
(308,43,o),
(416,154,o),
(345,120,cs),
(284,91,o),
(200,184,o),
(210,295,cs),
(214,352,o),
(236,472,o),
(321,582,cs)
);
}
);
width = 437;
}
);
unicode = 116;
},
{
glyphname = u;
lastChange = "2023-10-12 07:59:27 +0000";
layers = (
{
layerId = m01;
shapes = (
{
closed = 1;
nodes = (
(415,387,o),
(356,396,o),
(351,356,cs),
(325,123,o),
(256,125,o),
(241,124,cs),
(192,120,o),
(180,203,o),
(189,293,cs),
(199,391,o),
(209,490,o),
(219,589,cs),
(226,657,o),
(194,716,o),
(142,699,cs),
(109,688,o),
(-13,558,o),
(28,571,cs),
(72,586,o),
(80,543,o),
(75,495,cs),
(65,397,o),
(55,298,o),
(45,199,cs),
(34,96,o),
(97,-23,o),
(193,-16,cs),
(318,-6,o),
(395,208,o),
(411,350,cs)
);
},
{
closed = 1;
nodes = (
(461,-9,o),
(575,110,o),
(541,105,cs),
(485,97,o),
(463,200,o),
(472,293,cs),
(483,391,o),
(493,490,o),
(503,589,cs),
(510,657,o),
(477,716,o),
(425,699,cs),
(392,688,o),
(270,558,o),
(311,571,cs),
(355,586,o),
(364,543,o),
(359,495,cs),
(348,397,o),
(338,298,o),
(328,199,cs),
(316,88,o),
(362,-23,o),
(433,-13,cs)
);
}
);
width = 561;
}
);
unicode = 117;
},
{
glyphname = v;
kernLeft = v;
kernRight = v;
lastChange = "2023-10-12 07:59:27 +0000";
layers = (
{
layerId = m01;
shapes = (
{
closed = 1;
nodes = (
(489,648,o),
(423,670,o),
(409,625,cs),
(349,420,o),
(246,100,o),
(232,13,cs),
(229,-8,o),
(331,73,o),
(334,91,cs),
(344,156,o),
(425,430,o),
(477,605,cs)
);
},
{
closed = 1;
nodes = (
(523,572,o),
(577,740,o),
(546,711,cs),
(512,680,o),
(431,674,o),
(401,713,cs),
(387,731,o),
(322,564,o),
(337,545,cs),
(369,504,o),
(452,506,o),
(496,547,cs)
);
},
{
closed = 1;
nodes = (
(225,-16,o),
(378,102,o),
(323,102,cs),
(271,102,o),
(235,476,o),
(205,634,cs),
(195,688,o),
(148,720,o),
(114,710,cs),
(82,700,o),
(-41,570,o),
(-2,582,cs),
(36,594,o),
(67,562,o),
(77,510,cs),
(101,382,o),
(103,-16,o),
(181,-16,cs)
);
}
);
width = 504;
}
);
unicode = 118;
},
{
glyphname = y;
lastChange = "2023-10-11 18:32:05 +0000";
layers = (
{
layerId = m01;
shapes = (
{
closed = 1;
nodes = (
(75.294,164.243,o),
(-7.543,8.795,o),
(0.699,-21.151,cs),
(32.298,-135.961,o),
(226.731,-177.668,o),
(280.74,-119.336,cs),
(545.853,166.994,o),
(383.435,260.24,o),
(323.231,295.971,cs),
(307.213,305.477,o),
(178.9,178.634,o),
(196.769,168.029,cs),
(370.199,65.099,o),
(330.203,44.514,o),
(327.26,41.336,cs),
(279.351,-10.408,o),
(111.702,31.961,o),
(83.301,135.151,cs)
);
}
);
width = 600;
}
);
unicode = 121;
},
